# xmcd CD database file
#
# Track frame offsets:
#	183
#	14310
#	28048
#	41788
#	54273
#	67640
#	82408
#	96640
#	111180
#	125308
#	149885
#	162868
#	174693
#	187670
#	198455
#	210965
#	223450
#	235745
#
# Disc length: 3326 seconds
#
# Revision: 0
# Processed by: cddbd v1.5.1PL0 Copyright (c) Steve Scherf et al.
# Submitted via: CDex 1.51
#
DISCID=070cfc12
DTITLE=Various Artist - Big City Blues
DYEAR=1995
DGENRE=Blues
TTITLE0=Smokestack Lightnin' - Howlin' Wolf
TTITLE1=One Bourbon, One Scotch, One Beer - John Lee Hooker
TTITLE2=Dust My Broom - Elmore James
TTITLE3=I Pity The Fool - Bobby Bland
TTITLE4=Mannish Boy - Muddy Waters
TTITLE5=Lemonade - Louis Jordan
TTITLE6=Help Me - Sonny Boy Williamson
TTITLE7=So ManyRoads, So Many Trains - Otis Rush
TTITLE8=Before You Accuse Me - Bo Diddley
TTITLE9=The Thrill Is Gone - BB King
TTITLE10=Hi-Heel Sneakers - Tommy Tucker
TTITLE11=I'D Rather Go Blind - Etta James
TTITLE12=Hound Dog- Big Mamma Thornton
TTITLE13=Annie Get Your Yo Yo - Little Junior Parker
TTITLE14=The Walk - Jimmy McCracklin
TTITLE15=Just Because - Lloyd Price
TTITLE16=Juke - Little Walter
TTITLE17=We We Hours - Chuck Berry
EXTD=YEAR: 1995
EXTT0=
EXTT1=
EXTT2=
EXTT3=
EXTT4=
EXTT5=
EXTT6=
EXTT7=
EXTT8=
EXTT9=
EXTT10=
EXTT11=
EXTT12=
EXTT13=
EXTT14=
EXTT15=
EXTT16=
EXTT17=
PLAYORDER=
